<svg width="120" height="120" viewBox="0 0 120 120" fill="none" xmlns="http://www.w3.org/2000/svg">
<path fill-rule="evenodd" clip-rule="evenodd" d="M28.9016 1.09835C28.1984 0.395088 27.2446 0 26.25 0C25.2554 0 24.3016 0.395088 23.5984 1.09835C22.8951 1.80161 22.5 2.75544 22.5 3.75V7.5H15C11.0218 7.5 7.20644 9.08035 4.3934 11.8934C1.58035 14.7064 0 18.5218 0 22.5V105C0 108.978 1.58035 112.794 4.3934 115.607C7.20644 118.42 11.0218 120 15 120H105C108.978 120 112.794 118.42 115.607 115.607C118.42 112.794 120 108.978 120 105V22.5C120 18.5218 118.42 14.7064 115.607 11.8934C112.794 9.08035 108.978 7.5 105 7.5H97.5V3.75C97.5 2.75544 97.1049 1.80161 96.4017 1.09835C95.6984 0.395088 94.7446 0 93.75 0C92.7554 0 91.8016 0.395088 91.0983 1.09835C90.3951 1.80161 90 2.75544 90 3.75V7.5H30V3.75C30 2.75544 29.6049 1.80161 28.9016 1.09835ZM7.5 105V30H112.5V105C112.5 106.989 111.71 108.897 110.303 110.303C108.897 111.71 106.989 112.5 105 112.5H15C13.0109 112.5 11.1032 111.71 9.6967 110.303C8.29018 108.897 7.5 106.989 7.5 105ZM55.728 44H65.2825C66.5962 44 67.6711 45.1143 67.6711 46.4762C67.6711 47.8381 66.5962 48.9524 65.2825 48.9524H55.728C54.4143 48.9524 53.3394 47.8381 53.3394 46.4762C53.3394 45.1143 54.4143 44 55.728 44ZM62.8938 73.7143C62.8938 75.0762 61.819 76.1905 60.5052 76.1905C59.1915 76.1905 58.1166 75.0762 58.1166 73.7143V63.8095C58.1166 62.4476 59.1915 61.3333 60.5052 61.3333C61.819 61.3333 62.8938 62.4476 62.8938 63.8095V73.7143ZM79.0886 57.9657L77.2971 59.8229C79.8242 63.0999 81.4069 67.0502 81.8631 71.2189C82.3192 75.3876 81.6303 79.6051 79.8755 83.3856C78.1207 87.1662 75.3716 90.356 71.9446 92.5877C68.5176 94.8194 64.5523 96.0023 60.5052 96C57.6331 96.0017 54.7897 95.4067 52.1431 94.25C49.4966 93.0933 47.1005 91.3984 45.0964 89.2655C43.0924 87.1326 41.5211 84.6049 40.4753 81.8318C39.4295 79.0587 38.9305 76.0964 39.0078 73.12C39.2944 61.2343 49.0399 51.4286 60.5052 51.4286C65.3883 51.4278 70.1249 53.1578 73.9292 56.3314L75.7207 54.4743C76.1651 54.0164 76.7662 53.7594 77.3927 53.7594C78.0192 53.7594 78.6203 54.0164 79.0647 54.4743L79.0886 54.499C79.5303 54.9597 79.7782 55.5829 79.7782 56.2324C79.7782 56.8819 79.5303 57.505 79.0886 57.9657ZM43.785 73.7143C43.785 83.2971 51.2613 91.0476 60.5052 91.0476C69.7492 91.0476 77.2255 83.2971 77.2255 73.7143C77.2255 64.1314 69.7492 56.381 60.5052 56.381C51.2613 56.381 43.785 64.1314 43.785 73.7143Z" fill="#8AC03B"/>
</svg>
