<svg width="120" height="120" viewBox="0 0 120 120" fill="none" xmlns="http://www.w3.org/2000/svg">
<path fill-rule="evenodd" clip-rule="evenodd" d="M26.25 0C27.2446 0 28.1984 0.395088 28.9016 1.09835C29.6049 1.80161 30 2.75544 30 3.75V7.5H90V3.75C90 2.75544 90.3951 1.80161 91.0983 1.09835C91.8016 0.395088 92.7554 0 93.75 0C94.7446 0 95.6984 0.395088 96.4017 1.09835C97.1049 1.80161 97.5 2.75544 97.5 3.75V7.5H105C108.978 7.5 112.794 9.08035 115.607 11.8934C118.42 14.7064 120 18.5218 120 22.5V105C120 108.978 118.42 112.794 115.607 115.607C112.794 118.42 108.978 120 105 120H15C11.0218 120 7.20644 118.42 4.3934 115.607C1.58035 112.794 0 108.978 0 105V22.5C0 18.5218 1.58035 14.7064 4.3934 11.8934C7.20644 9.08035 11.0218 7.5 15 7.5H22.5V3.75C22.5 2.75544 22.8951 1.80161 23.5984 1.09835C24.3016 0.395088 25.2554 0 26.25 0ZM7.5 30V105C7.5 106.989 8.29018 108.897 9.6967 110.303C11.1032 111.71 13.0109 112.5 15 112.5H105C106.989 112.5 108.897 111.71 110.303 110.303C111.71 108.897 112.5 106.989 112.5 105V30H7.5ZM82.5 48.75C82.5 47.7554 82.8951 46.8016 83.5983 46.0984C84.3016 45.3951 85.2554 45 86.25 45H93.75C94.7446 45 95.6984 45.3951 96.4017 46.0984C97.1049 46.8016 97.5 47.7554 97.5 48.75V56.25C97.5 57.2446 97.1049 58.1984 96.4017 58.9016C95.6984 59.6049 94.7446 60 93.75 60H86.25C85.2554 60 84.3016 59.6049 83.5983 58.9016C82.8951 58.1984 82.5 57.2446 82.5 56.25V48.75ZM65.5979 61.1317C66.386 61.5819 67.0457 62.2293 67.5135 63.0115L74.6246 74.9603C74.8707 75.3717 75.0005 75.8431 75 76.3235V84.2647C75 87.1844 72.6454 89.5588 69.75 89.5588H69.6161C68.973 94.035 65.1799 97.5 60.5625 97.5C55.9451 97.5 52.152 94.035 51.5089 89.5588H43.3661C42.723 94.035 38.9299 97.5 34.3125 97.5C29.4562 97.5 25.5082 93.6697 25.1854 88.8547C23.592 87.9468 22.5 86.2394 22.5 84.2647V57.7941C22.5 54.8744 24.8546 52.5 27.75 52.5H54C54.6962 52.5 55.3639 52.7789 55.8562 53.2753C56.3484 53.7717 56.625 54.445 56.625 55.1471V60.4412H63.0143C63.92 60.4437 64.8098 60.6815 65.5979 61.1317ZM63.0143 65.7353H56.625V73.6765H67.7393L63.0143 65.7353ZM30.375 88.2353C30.375 90.4244 32.1416 92.2059 34.3125 92.2059C36.4834 92.2059 38.25 90.4244 38.25 88.2353C38.25 86.0462 36.4834 84.2647 34.3125 84.2647C32.1416 84.2647 30.375 86.0462 30.375 88.2353ZM56.625 88.2353C56.625 90.4244 58.3916 92.2059 60.5625 92.2059C62.7334 92.2059 64.5 90.4244 64.5 88.2353C64.5 86.0462 62.7334 84.2647 60.5625 84.2647C58.3916 84.2647 56.625 86.0462 56.625 88.2353Z" fill="#8AC03B"/>
</svg>
