<svg width="120" height="120" viewBox="0 0 120 120" fill="none" xmlns="http://www.w3.org/2000/svg">
<path fill-rule="evenodd" clip-rule="evenodd" d="M7.5 35.625C7.5 32.144 8.88281 28.8056 11.3442 26.3442C13.8056 23.8828 17.144 22.5 20.625 22.5H99.375C102.856 22.5 106.194 23.8828 108.656 26.3442C111.117 28.8056 112.5 32.144 112.5 35.625V68.4375H7.5V35.625ZM82.9688 42.1875C82.0985 42.1875 81.2639 42.5332 80.6486 43.1486C80.0332 43.7639 79.6875 44.5985 79.6875 45.4688V52.0312C79.6875 52.9015 80.0332 53.7361 80.6486 54.3514C81.2639 54.9668 82.0985 55.3125 82.9688 55.3125H96.0938C96.964 55.3125 97.7986 54.9668 98.4139 54.3514C99.0293 53.7361 99.375 52.9015 99.375 52.0312V45.4688C99.375 44.5985 99.0293 43.7639 98.4139 43.1486C97.7986 42.5332 96.964 42.1875 96.0938 42.1875H82.9688ZM7.5 81.5625V88.125C7.5 91.606 8.88281 94.9444 11.3442 97.4058C13.8056 99.8672 17.144 101.25 20.625 101.25H75.811C75.2815 99.1713 75 96.9935 75 94.75C75 89.9429 76.2921 85.4376 78.548 81.5625H7.5ZM96.0884 72H104.421C105.566 72 106.504 72.9643 106.504 74.1429C106.504 75.3214 105.566 76.2857 104.421 76.2857H96.0884C94.9427 76.2857 94.0053 75.3214 94.0053 74.1429C94.0053 72.9643 94.9427 72 96.0884 72ZM102.338 97.7143C102.338 98.8929 101.4 99.8571 100.255 99.8571C99.1089 99.8571 98.1715 98.8929 98.1715 97.7143V89.1429C98.1715 87.9643 99.1089 87 100.255 87C101.4 87 102.338 87.9643 102.338 89.1429V97.7143ZM116.461 84.0857L114.899 85.6929C117.102 88.5287 118.483 91.9473 118.881 95.5548C119.278 99.1623 118.678 102.812 117.147 106.084C115.617 109.355 113.219 112.116 110.231 114.047C107.242 115.978 103.784 117.002 100.255 117C97.7498 117.001 95.2701 116.487 92.962 115.486C90.654 114.485 88.5644 113.018 86.8167 111.172C85.0689 109.326 83.6986 107.139 82.7866 104.739C81.8746 102.339 81.4394 99.7757 81.5068 97.2C81.7568 86.9143 90.2557 78.4286 100.255 78.4286C104.513 78.4279 108.644 79.925 111.962 82.6714L113.524 81.0643C113.911 80.6681 114.436 80.4457 114.982 80.4457C115.528 80.4457 116.053 80.6681 116.44 81.0643L116.461 81.0857C116.846 81.4844 117.062 82.0236 117.062 82.5857C117.062 83.1478 116.846 83.687 116.461 84.0857ZM85.673 97.7143C85.673 106.007 92.193 112.714 100.255 112.714C108.316 112.714 114.836 106.007 114.836 97.7143C114.836 89.4214 108.316 82.7143 100.255 82.7143C92.193 82.7143 85.673 89.4214 85.673 97.7143Z" fill="#8AC03B"/>
</svg>
