<svg width="120" height="120" viewBox="0 0 120 120" fill="none" xmlns="http://www.w3.org/2000/svg">
<path fill-rule="evenodd" clip-rule="evenodd" d="M30.0924 10.9259C30.0924 10.4145 29.5704 10 28.9265 10C28.2826 10 27.7605 10.4145 27.7605 10.9259V19.233L24.9904 16.4628C24.5351 16.0075 23.7968 16.0075 23.3415 16.4628C22.8862 16.9181 22.8862 17.6564 23.3415 18.1117L28.1025 22.8727C28.5578 23.328 29.296 23.328 29.7514 22.8727L34.5123 18.1117C34.9676 17.6564 34.9676 16.9181 34.5123 16.4628C34.057 16.0075 33.3187 16.0075 32.8634 16.4628L30.0924 19.2338V10.9259ZM90.9265 10C91.5704 10 92.0924 10.4145 92.0924 10.9259V19.2338L94.8634 16.4628C95.3187 16.0075 96.057 16.0075 96.5123 16.4628C96.9677 16.9181 96.9677 17.6564 96.5123 18.1117L91.7514 22.8727C91.296 23.328 90.5578 23.328 90.1025 22.8727L85.3415 18.1117C84.8862 17.6564 84.8862 16.9181 85.3415 16.4628C85.7968 16.0075 86.5351 16.0075 86.9904 16.4628L89.7605 19.233V10.9259C89.7605 10.4145 90.2826 10 90.9265 10ZM60 10.0005C61.6569 10.0005 63 11.0671 63 12.3828V33.7588L70.1297 26.6292C71.3012 25.4576 73.2007 25.4576 74.3723 26.6292C75.5439 27.8007 75.5439 29.7002 74.3723 30.8718L62.1223 43.1218C60.9507 44.2934 59.0512 44.2934 57.8797 43.1218L45.6297 30.8718C44.4581 29.7002 44.4581 27.8007 45.6297 26.6292C46.8012 25.4576 48.7007 25.4576 49.8723 26.6292L57 33.7569V12.3828C57 11.0671 58.3431 10.0005 60 10.0005ZM70.0486 76.3446C71.3924 78.5946 73.8767 80.0009 76.5174 80.0009C77.2205 80.0009 77.9236 79.9071 78.5955 79.704L100.002 73.5946V101.407C100.002 103.688 98.4392 105.688 96.2205 106.251L62.408 114.704C60.8299 115.095 59.158 115.095 57.5642 114.704L23.783 106.251C21.5642 105.704 20.0017 103.704 20.0017 101.407V73.5946L41.408 79.7196C42.0799 79.9228 42.783 80.0165 43.4861 80.0165C46.1267 80.0165 48.6111 78.6103 49.9705 76.3446L60.0017 59.6884L70.0486 76.3446ZM101.689 46.4071L109.736 62.4696C110.439 63.9071 109.689 65.6259 108.142 66.079L77.2205 74.9071C76.1111 75.2196 74.9236 74.7509 74.3299 73.7665L60.0017 50.0009L99.0798 45.0165C100.158 44.8759 101.205 45.4384 101.689 46.4071ZM60.0017 50.0009L20.908 45.0165C19.8299 44.8915 18.7986 45.4384 18.3142 46.4071L10.2674 62.4696C9.54861 63.9071 10.3142 65.6259 11.8455 66.0634L42.7674 74.8915C43.8767 75.204 45.0642 74.7353 45.658 73.7509L60.0017 50.0009Z" fill="#8AC03B"/>
</svg>
