<svg width="120" height="120" viewBox="0 0 120 120" fill="none" xmlns="http://www.w3.org/2000/svg">
<g clip-path="url(#clip0)">
<path d="M103.891 78.305C107.78 69.2103 108.675 59.1447 106.451 49.5233C104.227 39.9019 98.9948 31.2086 91.4908 24.6656C83.9868 18.1226 74.5881 14.059 64.6161 13.0461C54.6441 12.0332 44.6003 14.1219 35.8969 19.0186L29.9515 8.77183C39.0472 3.655 49.3471 0.975329 59.8236 1.00017C70.3 1.02501 80.5867 3.75351 89.6573 8.91341C116.567 24.204 126.876 56.9442 114.332 84.2455L122.375 88.8114L97.4127 101.872L96.4238 74.0636L103.891 78.305V78.305ZM15.4895 41.695C11.6007 50.7897 10.7055 60.8553 12.9298 70.4767C15.1542 80.0981 20.3862 88.7914 27.8902 95.3344C35.3942 101.877 44.7929 105.941 54.7649 106.954C64.7369 107.967 74.7807 105.878 83.4841 100.981L89.4295 111.228C80.3338 116.345 70.0339 119.025 59.5574 119C49.081 118.975 38.7943 116.246 29.7237 111.087C2.81356 95.796 -7.49502 63.0558 5.04908 35.7545L-3 31.1945L21.9623 18.1338L22.9512 45.9423L15.4835 41.7009L15.4895 41.695ZM38.7138 71.7983H71.6772C72.472 71.7983 73.2342 71.4875 73.7962 70.9344C74.3582 70.3812 74.6739 69.631 74.6739 68.8487C74.6739 68.0664 74.3582 67.3162 73.7962 66.7631C73.2342 66.2099 72.472 65.8991 71.6772 65.8991H47.7038C43.7299 65.8991 39.9189 64.3454 37.1089 61.5796C34.299 58.8138 32.7204 55.0627 32.7204 51.1513C32.7204 47.2399 34.299 43.4887 37.1089 40.723C39.9189 37.9572 43.7299 36.4034 47.7038 36.4034H53.6971V30.5043H65.6839V36.4034H80.6672V48.2017H47.7038C46.909 48.2017 46.1468 48.5125 45.5848 49.0656C45.0228 49.6188 44.7071 50.369 44.7071 51.1513C44.7071 51.9336 45.0228 52.6838 45.5848 53.2369C46.1468 53.7901 46.909 54.1009 47.7038 54.1009H71.6772C75.6511 54.1009 79.4621 55.6546 82.2721 58.4204C85.082 61.1862 86.6606 64.9373 86.6606 68.8487C86.6606 72.7601 85.082 76.5113 82.2721 79.277C79.4621 82.0428 75.6511 83.5966 71.6772 83.5966H65.6839V89.4957H53.6971V83.5966H38.7138V71.7983Z" fill="#8AC03B"/>
</g>
<defs>
<clipPath id="clip0">
<rect width="120" height="120" fill="white"/>
</clipPath>
</defs>
</svg>
