<svg width="150" height="120" viewBox="0 0 150 120" fill="none" xmlns="http://www.w3.org/2000/svg">
<path fill-rule="evenodd" clip-rule="evenodd" d="M131.812 83.8125H135.281C137.189 83.8125 138.75 85.3734 138.75 87.2812V94.2188C138.75 96.1266 137.189 97.6875 135.281 97.6875H124.875C124.875 109.178 115.553 118.5 104.062 118.5C92.5723 118.5 83.25 109.178 83.25 97.6875H55.5C55.5 109.178 46.1777 118.5 34.6875 118.5C23.1973 118.5 13.875 109.178 13.875 97.6875H10.4062C4.66113 97.6875 0 93.0264 0 87.2812V17.9062C0 12.1611 4.66113 7.5 10.4062 7.5H79.7812C85.5264 7.5 90.1875 12.1611 90.1875 17.9062V28.3125H99.7482C102.502 28.3125 105.146 29.4182 107.098 31.3693L128.756 53.0273C130.707 54.9785 131.812 57.6234 131.812 60.3768V83.8125ZM24.2812 97.6875C24.2812 103.433 28.9424 108.094 34.6875 108.094C40.4326 108.094 45.0938 103.433 45.0938 97.6875C45.0938 91.9424 40.4326 87.2812 34.6875 87.2812C28.9424 87.2812 24.2812 91.9424 24.2812 97.6875ZM93.6562 97.6875C93.6562 103.433 98.3174 108.094 104.062 108.094C109.808 108.094 114.469 103.433 114.469 97.6875C114.469 91.9424 109.808 87.2812 104.062 87.2812C98.3174 87.2812 93.6562 91.9424 93.6562 97.6875ZM90.1875 63H121.406V60.3768L99.7482 38.7188H90.1875V63ZM17.3438 50.8594C17.3438 36.4927 28.9927 24.8438 43.3594 24.8438C57.726 24.8438 69.375 36.4927 69.375 50.8594C69.375 65.226 57.726 76.875 43.3594 76.875C28.9927 76.875 17.3438 65.226 17.3438 50.8594ZM21.7571 50.8594C21.7571 62.7871 31.4317 72.4616 43.3594 72.4616C55.2871 72.4616 64.9616 62.7871 64.9616 50.8594C64.9616 38.9317 55.2871 29.2571 43.3594 29.2571C31.4317 29.2571 21.7571 38.9317 21.7571 50.8594ZM44.6544 49.1695L46.1293 49.5121C49.8923 50.4413 52.4532 52.2415 52.459 56.2716C52.459 60.6385 49.2071 63.0716 44.6602 63.4723L44.6718 65.3131C44.6718 65.5745 44.4627 65.7835 44.2072 65.7835H42.558C42.3025 65.7835 42.0934 65.5745 42.0934 65.319V63.4955C36.9252 63.1181 34.5036 60.1797 34.2423 56.9858C34.2191 56.7129 34.4339 56.4806 34.7069 56.4806H37.3897C37.6162 56.4806 37.8136 56.6432 37.8485 56.8639C38.1446 58.7105 39.5848 60.081 42.1515 60.4236V52.1369L40.7172 51.7711C37.6801 51.0452 34.7882 49.1521 34.7882 45.2265C34.7882 40.9874 38.0053 38.7168 42.1167 38.3161V36.3998C42.1167 36.1443 42.3257 35.9352 42.5812 35.9352H44.213C44.4685 35.9352 44.6776 36.1443 44.6776 36.3998V38.2987C48.6554 38.6994 51.6344 41.0222 51.9887 44.64C52.0119 44.9129 51.797 45.151 51.5241 45.151H48.9167C48.6844 45.151 48.487 44.9826 48.458 44.7503C48.2257 43.0547 46.861 41.6726 44.6544 41.3706V49.1695ZM41.2746 48.281C41.5476 48.3914 41.8205 48.4785 42.1457 48.5714V41.3706C39.9971 41.6436 38.4001 42.8456 38.4001 44.9536C38.4001 46.4286 39.3119 47.5726 41.2746 48.281ZM44.6544 52.677V60.441C47.1282 60.2204 48.8354 58.8557 48.8354 56.5851C48.8354 54.8024 47.9121 53.641 45.1654 52.8047C44.997 52.7699 44.8344 52.7292 44.6544 52.677Z" fill="#8AC03B"/>
</svg>
