<svg width="120" height="120" viewBox="0 0 120 120" fill="none" xmlns="http://www.w3.org/2000/svg">
<path fill-rule="evenodd" clip-rule="evenodd" d="M110.607 14.3934C107.794 11.5804 103.978 10 100 10H30C26.0218 10 22.2064 11.5804 19.3934 14.3934C16.5804 17.2064 15 21.0218 15 25V75H25V25L25.035 24.415C25.1783 23.1987 25.763 22.0774 26.6781 21.2636C27.5933 20.4498 28.7753 20.0002 30 20H95V95L94.965 95.585C94.8217 96.8013 94.237 97.9226 93.3219 98.7364C92.4067 99.5502 91.2247 99.9998 90 100L89.415 99.965C88.1987 99.8217 87.0774 99.237 86.2636 98.3219C85.4498 97.4067 85.0002 96.2247 85 95V85H5V95C5 98.9782 6.58035 102.794 9.3934 105.607C12.2064 108.42 16.0218 110 20 110H90C93.9782 110 97.7936 108.42 100.607 105.607C103.42 102.794 105 98.9782 105 95V35H115V25C115 21.0218 113.42 17.2064 110.607 14.3934ZM36.8 70.725H78.2C79.1956 70.725 80 71.5294 80 72.525V74.55C80 74.7975 79.7975 75 79.55 75H35.45C35.2025 75 35 74.7975 35 74.55V72.525C35 71.5294 35.8044 70.725 36.8 70.725ZM43.5331 65.9719C43.4206 65.9888 43.3081 66 43.1956 66C42.695 66 42.2281 65.8031 41.8569 65.4431C41.6392 65.2277 41.4772 64.9625 41.3851 64.6704C41.293 64.3783 41.2734 64.0682 41.3281 63.7669L42.9875 54.3056C43.01 54.1931 43.0606 54.0919 43.145 54.0075L66.9894 30.1631C67.0962 30.0562 67.2369 30 67.3887 30C67.5406 30 67.6813 30.0562 67.7881 30.1631L77.1369 39.5175C77.189 39.5695 77.2304 39.6313 77.2586 39.6994C77.2868 39.7674 77.3014 39.8404 77.3014 39.9141C77.3014 39.9877 77.2868 40.0607 77.2586 40.1287C77.2304 40.1968 77.189 40.2586 77.1369 40.3106L53.2925 64.155C53.2137 64.2394 53.1069 64.29 52.9944 64.3125L43.5331 65.9719Z" fill="#8AC03B"/>
</svg>
