<svg width="120" height="120" viewBox="0 0 120 120" fill="none" xmlns="http://www.w3.org/2000/svg">
<path d="M44.2109 94.6104L38.2371 100.547C35.7345 103.011 32.3637 104.391 28.8522 104.391C25.3407 104.391 21.97 103.011 19.4674 100.547C18.2472 99.3391 17.2786 97.9009 16.6176 96.3161C15.9566 94.7312 15.6162 93.031 15.6162 91.3138C15.6162 89.5965 15.9566 87.8964 16.6176 86.3115C17.2786 84.7266 18.2472 83.2884 19.4674 82.0801L41.4452 60.2866C45.9957 55.7657 54.5656 49.1133 60.8123 55.3084C61.4845 56.0252 62.2943 56.5993 63.1933 56.9963C64.0922 57.3933 65.0619 57.6051 66.0445 57.6191C67.0272 57.6331 68.0025 57.449 68.9124 57.0778C69.8223 56.7066 70.6481 56.1559 71.3405 55.4585C72.0329 54.7612 72.5777 53.9315 72.9424 53.0189C73.3071 52.1064 73.4843 51.1297 73.4633 50.1473C73.4422 49.1648 73.2235 48.1966 72.8201 47.3005C72.4167 46.4044 71.8369 45.5988 71.1153 44.9316C60.5099 34.4 44.8157 36.347 31.1496 49.9098L9.17172 71.7107C6.57488 74.2709 4.51465 77.3233 3.11154 80.6892C1.70843 84.0551 0.990621 87.6671 1.00009 91.3138C0.991032 94.9604 1.70903 98.5722 3.11212 101.938C4.5152 105.304 6.57522 108.356 9.17172 110.917C14.4058 116.109 21.4837 119.015 28.8559 119C35.9877 119 43.1194 116.308 48.5401 110.917L54.5213 104.98C55.2034 104.305 55.7456 103.503 56.1168 102.618C56.4879 101.733 56.6807 100.784 56.6842 99.8249C56.6876 98.8656 56.5016 97.9151 56.1367 97.0278C55.7719 96.1406 55.2355 95.3341 54.5582 94.6547C53.1891 93.2819 51.3324 92.5067 49.3937 92.4984C47.4549 92.4901 45.5917 93.2494 44.2109 94.6104V94.6104ZM110.823 9.91458C99.4137 -1.39885 83.4687 -2.01098 72.9222 8.46168L65.4808 15.8516C64.1057 17.2168 63.3293 19.0725 63.3224 21.0102C63.3155 22.9479 64.0786 24.809 65.4439 26.1841C66.8092 27.5592 68.6648 28.3356 70.6025 28.3425C72.5402 28.3494 74.4013 27.5863 75.7764 26.221L83.2253 18.8385C88.6829 13.4104 95.8441 15.6598 100.527 20.2914C103.005 22.762 104.377 26.0366 104.377 29.525C104.377 33.0135 103.005 36.288 100.527 38.7513L77.0744 62.0124C66.351 72.64 61.3212 67.6618 59.175 65.5303C58.4942 64.8543 57.6868 64.319 56.7991 63.955C55.9113 63.591 54.9606 63.4054 54.0011 63.4088C53.0417 63.4123 52.0923 63.6046 51.2071 63.975C50.322 64.3453 49.5185 64.8864 48.8425 65.5672C48.1665 66.2481 47.6312 67.0554 47.2672 67.9432C46.9031 68.8309 46.7176 69.7817 46.721 70.7411C46.7244 71.7006 46.9168 72.65 47.2871 73.5351C47.6574 74.4202 48.1985 75.2237 48.8794 75.8998C53.8059 80.7821 59.4258 83.2011 65.3111 83.2011C72.5166 83.2011 80.1351 79.5726 87.3849 72.3818L110.838 49.1281C113.429 46.564 115.485 43.5108 116.886 40.1456C118.288 36.7804 119.007 33.1704 119.002 29.525C119.009 25.877 118.289 22.2642 116.885 18.8973C115.48 15.5304 113.42 12.4768 110.823 9.91458V9.91458Z" fill="#8AC03B"/>
</svg>
