<svg width="120" height="120" viewBox="0 0 120 120" fill="none" xmlns="http://www.w3.org/2000/svg">
<g clip-path="url(#clip0)">
<path d="M116.202 108.612L108 84H99.0002L103.998 108H16.0022L21.0002 84H12.0002L3.79221 108.612C1.71021 114.876 5.40021 120 12.0002 120H108C114.6 120 118.29 114.876 116.202 108.612ZM90.0002 30C90.0002 22.0435 86.8395 14.4129 81.2134 8.7868C75.5873 3.16071 67.9567 0 60.0002 0C52.0437 0 44.4131 3.16071 38.787 8.7868C33.1609 14.4129 30.0002 22.0435 30.0002 30C30.0002 58.65 60.0002 90 60.0002 90C60.0002 90 90.0002 58.65 90.0002 30ZM43.8002 30.36C43.8002 21.414 51.0482 14.166 60.0002 14.166C64.2959 14.166 68.4157 15.8725 71.4532 18.91C74.4907 21.9475 76.1972 26.0673 76.1972 30.363C76.1972 34.6587 74.4907 38.7785 71.4532 41.816C68.4157 44.8535 64.2959 46.56 60.0002 46.56C55.7037 46.56 51.5832 44.8532 48.5451 41.8151C45.507 38.777 43.8002 34.6565 43.8002 30.36V30.36Z" fill="#8AC03B"/>
</g>
<defs>
<clipPath id="clip0">
<rect width="120" height="120" fill="white"/>
</clipPath>
</defs>
</svg>
