<svg width="120" height="120" viewBox="0 0 120 120" fill="none" xmlns="http://www.w3.org/2000/svg">
<g clip-path="url(#clip0)">
<path fill-rule="evenodd" clip-rule="evenodd" d="M29.1502 97.6451L0 86.7785V2L29.1502 9.97227V97.6451ZM66.9385 81.2789C66.9385 70.2791 75.0958 61.3667 85.1703 61.3667C95.2226 61.3667 103.387 70.2791 103.387 81.2789C103.387 84.1214 102.84 86.8084 101.848 89.266L85.2295 120L68.4707 89.266C67.5011 86.8084 66.9385 84.1214 66.9385 81.2789ZM77.4353 88.0325C79.519 90.1134 82.3439 91.2813 85.2888 91.2794C86.7469 91.2784 88.1905 90.9902 89.5373 90.4313C90.8841 89.8724 92.1076 89.0538 93.1379 88.022C94.1683 86.9903 94.9853 85.7657 95.5424 84.4182C96.0995 83.0707 96.3858 81.6267 96.3848 80.1685C96.3838 78.7104 96.0957 77.2668 95.5368 75.92C94.9779 74.5732 94.1592 73.3497 93.1274 72.3194C92.0957 71.289 90.8711 70.472 89.5236 69.9149C88.1761 69.3577 86.7321 69.0715 85.274 69.0725C82.3291 69.0744 79.5057 70.2462 77.4248 72.3298C75.3439 74.4135 74.176 77.2385 74.1779 80.1833C74.1799 83.1282 75.3516 85.9516 77.4353 88.0325ZM118.438 9.28486L81.6562 2.41553V53.1509C81.8665 53.1239 82.0768 53.0955 82.2875 53.067C83.2333 52.9391 84.1855 52.8104 85.1723 52.8104C99.8067 52.8104 111.658 64.2173 111.658 78.2965C111.658 81.9384 110.858 85.3731 109.43 88.5264L106.58 93.1825L118.438 98.3419V9.28486ZM73.7957 55.3642C64.8759 59.465 58.6728 68.1553 58.6728 78.2965C58.6776 81.8263 59.4373 85.3143 60.9009 88.5264L64.491 94.3224L37.2432 97.6461V9.97328L73.7957 3.34082V55.3642Z" fill="#8AC03B"/>
</g>
<defs>
<clipPath id="clip0">
<rect width="120" height="120" fill="white"/>
</clipPath>
</defs>
</svg>
