<svg width="120" height="120" viewBox="0 0 120 120" fill="none" xmlns="http://www.w3.org/2000/svg">
<path fill-rule="evenodd" clip-rule="evenodd" d="M79.9859 64.8171L70.1118 60.4286C69.4143 60.1186 68.9639 59.4251 68.9639 58.662V55.9505C72.2807 53.3077 74.4127 49.2379 74.4127 44.6772V40.8602C75.5054 40.2565 76.2288 39.0896 76.2288 37.7828V37.4124C76.2288 29.4654 69.7634 23 61.8164 23H58.1842C50.2372 23 43.7718 29.4654 43.7718 37.4124V40.7735C43.7718 41.9221 44.2661 42.9628 45.1278 43.6286C45.2739 43.7415 45.4277 43.8407 45.5879 43.9266V44.6769C45.5879 49.2377 47.7197 53.3074 51.0363 55.9501V58.6618C51.0363 59.4249 50.5857 60.1184 49.8883 60.4283L40.0142 64.8169C36.7805 66.254 34.6909 69.4693 34.6909 73.008V95.5294C34.6909 96.4678 35.4517 97.2286 36.3901 97.2286C37.3285 97.2286 38.0893 96.4678 38.0893 95.5294V73.0083C38.0893 72.8114 38.1034 72.6168 38.1238 72.4237L42.6736 76.9736C43.3816 77.6818 43.7718 78.6232 43.7718 79.6248V95.5296C43.7718 96.468 44.5326 97.2288 45.471 97.2288C46.4094 97.2288 47.1702 96.468 47.1702 95.5296V79.6248C47.1702 77.7156 46.4269 75.9207 45.0768 74.5707L39.6526 69.1463C40.1413 68.6392 40.7277 68.2189 41.3947 67.9224L51.1022 63.6079L58.3013 70.807V95.5294C58.3013 96.4678 59.0621 97.2286 60.0005 97.2286C60.939 97.2286 61.6998 96.4678 61.6998 95.5294V70.8072L68.8988 63.6081L78.6062 67.9224C79.2732 68.2189 79.8595 68.6392 80.3482 69.1465L74.9241 74.5707C73.574 75.9207 72.8306 77.7156 72.8306 79.6248V95.5296C72.8306 96.468 73.5914 97.2288 74.5298 97.2288C75.4683 97.2288 76.2291 96.468 76.2291 95.5296V79.6248C76.2291 78.6234 76.619 77.6818 77.3272 76.9736L81.8768 72.424C81.8972 72.617 81.9113 72.8112 81.9113 73.008V95.5294C81.9113 96.4678 82.6721 97.2286 83.6105 97.2286C84.5489 97.2286 85.3097 96.4678 85.3097 95.5294V73.0083C85.3091 69.4696 83.2197 66.2542 79.9859 64.8171ZM59.9999 67.7003L53.683 61.3833C54.1634 60.5751 54.4346 59.6401 54.4346 58.662V57.9706C56.1481 58.6906 58.0283 59.0896 60.0001 59.0896C61.9719 59.0896 63.8519 58.6908 65.5652 57.9708V58.662C65.5652 59.6403 65.8364 60.5751 66.3169 61.3835L59.9999 67.7003ZM60.0001 55.6909C53.927 55.6911 48.9861 50.7502 48.9861 44.6772V43.913C50.0465 43.4927 51.0814 42.8239 52.0722 41.9097C52.7616 41.2733 52.8049 40.1982 52.1682 39.5086C51.5318 38.8191 50.457 38.7759 49.7671 39.4123C48.9173 40.1969 48.0681 40.7037 47.2439 40.9189C47.2239 40.9241 47.2092 40.9264 47.1988 40.9273C47.1865 40.9035 47.17 40.8537 47.17 40.7737V37.4126C47.17 31.3396 52.1109 26.3987 58.184 26.3987H61.8162C67.8895 26.3987 72.8302 31.3396 72.8302 37.4126V37.7831C72.8302 37.8381 72.7971 37.8859 72.7536 37.8945C62.5784 39.9041 57.4748 36.1167 55.7529 34.3948C55.0893 33.7312 54.0134 33.7312 53.35 34.3948C52.6864 35.0584 52.6864 36.1344 53.35 36.7977C58.6267 42.0744 66.3264 42.1696 71.014 41.6063V44.6769C71.014 50.75 66.0731 55.6909 60.0001 55.6909ZM32.6409 55.5747V51.9417C32.6409 47.5088 30.3372 43.6064 26.866 41.3607C27.0804 40.6731 27.1923 39.9529 27.1923 39.2285C27.1923 35.2872 23.986 32.0809 20.0447 32.0809C16.1034 32.0809 12.897 35.2875 12.897 39.2285C12.897 39.9619 13.008 40.6751 13.2228 41.3612C9.75188 43.6067 7.4484 47.509 7.4484 51.9417V55.574C7.4484 59.8667 9.60823 63.6625 12.8968 65.9377V69.6744C12.8968 70.4114 12.4874 71.0739 11.8283 71.4035L5.95104 74.3421C3.5139 75.561 2 78.0106 2 80.7355V95.5299C2 96.4683 2.7608 97.2291 3.69923 97.2291C4.63765 97.2291 5.39846 96.4683 5.39846 95.5299V81.4704L8.16661 84.2386C8.87462 84.9468 9.26476 85.8882 9.26476 86.8898V95.5299C9.26476 96.4683 10.0256 97.2291 10.964 97.2291C11.9024 97.2291 12.6632 96.4683 12.6632 95.5299V86.8898C12.6632 84.9806 11.9196 83.1858 10.5698 81.8357L6.71706 77.9829C6.70534 77.9712 6.69308 77.9605 6.68085 77.9498C6.67369 77.9435 6.66654 77.9373 6.65951 77.9308C6.90125 77.7174 7.17245 77.5316 7.47106 77.3821L13.3483 74.4436C13.6495 74.2929 13.9297 74.115 14.1909 73.9175L18.3454 78.0722V95.5301C18.3454 96.4685 19.1062 97.2293 20.0447 97.2293C20.9831 97.2293 21.7439 96.4685 21.7439 95.5301V78.072L25.8986 73.9173C26.1601 74.115 26.4401 74.2929 26.7412 74.4433L28.3618 75.2538C28.6058 75.3759 28.865 75.4337 29.1206 75.4337C29.7439 75.4337 30.344 75.0893 30.6417 74.4941C31.0616 73.6547 30.7213 72.634 29.8818 72.2144L28.2612 71.404C27.6019 71.0743 27.1925 70.4119 27.1925 69.6751V65.9384C30.4811 63.6632 32.6409 59.8671 32.6409 55.5747ZM20.0447 35.4794C22.1121 35.4794 23.7938 37.1614 23.7938 39.2285C23.7938 39.4562 23.7734 39.6794 23.7345 39.898C22.5668 39.5396 21.3281 39.3454 20.0447 39.3454C18.763 39.3454 17.526 39.5389 16.3601 39.8965C16.3209 39.6778 16.2955 39.4558 16.2955 39.2285C16.2955 37.1611 17.9773 35.4794 20.0447 35.4794ZM20.0447 42.7441C25.1163 42.7441 29.2425 46.8703 29.2425 51.9419V52.5577C22.168 54.7237 17.9519 49.3421 17.7718 49.1063C17.4761 48.7123 17.0241 48.4658 16.5329 48.4309C16.0417 48.3964 15.5592 48.5761 15.2109 48.9243C13.589 50.5463 12.0003 51.3286 10.853 51.7063C10.9787 46.7432 15.0521 42.7441 20.0447 42.7441ZM20.0447 74.9649L16.1181 71.0383C16.2327 70.6001 16.2955 70.1434 16.2955 69.6746V67.6004C17.4802 67.9706 18.7397 68.1702 20.0447 68.1702C21.3497 68.1702 22.6091 67.9706 23.7938 67.6004V69.6746C23.7938 70.1434 23.8566 70.6004 23.9712 71.0383L20.0447 74.9649ZM20.0447 64.7718C14.973 64.7718 10.8469 60.6456 10.8469 55.574V55.2219C12.2019 54.9106 14.2111 54.1872 16.307 52.5015C17.0486 53.2012 18.1084 54.0594 19.4581 54.7955C21.0545 55.6662 23.2591 56.4716 25.9521 56.4716C26.9755 56.4716 28.0705 56.3527 29.228 56.0794C28.9645 60.917 24.9466 64.7718 20.0447 64.7718ZM104.54 65.9554L114.049 70.7103C116.487 71.929 118 74.3786 118 77.1032V95.5299C118 96.4683 117.239 97.2291 116.301 97.2291C115.363 97.2291 114.602 96.4683 114.602 95.5299V77.1032C114.602 76.7743 114.558 76.4537 114.478 76.1462L111.834 78.79C111.126 79.4982 110.736 80.4398 110.736 81.4412V95.5299C110.736 96.4683 109.975 97.2291 109.036 97.2291C108.098 97.2291 107.337 96.4683 107.337 95.5299V81.4412C107.337 79.532 108.081 77.7372 109.431 76.3871L112.222 73.596L103.02 68.995C102.719 68.8445 102.439 68.6667 102.177 68.4689L98.0227 72.6236V95.5303C98.0227 96.4688 97.2619 97.2296 96.3235 97.2296C95.385 97.2296 94.6242 96.4688 94.6242 95.5303V72.6241L90.4695 68.4693C90.2083 68.6669 89.928 68.8448 89.6269 68.9954C89.3829 69.1173 89.1237 69.1751 88.8684 69.1751C88.2451 69.1751 87.645 68.8307 87.3472 68.2353C86.9274 67.3959 87.2677 66.3752 88.1071 65.9556C88.7664 65.6262 89.1758 64.9637 89.1758 64.2267V61.8186C86.9499 59.8422 85.5433 56.9622 85.5433 53.7583V51.8223C85.4813 51.8248 85.4405 51.8253 85.4264 51.8253C84.488 51.8253 83.7272 51.0645 83.7272 50.1261V46.4938C83.7272 40.5497 88.5632 35.7137 94.5073 35.7137H98.1396C104.084 35.7137 108.92 40.5497 108.92 46.4938V50.1261C108.92 51.0645 108.159 51.8253 107.221 51.8253C107.181 51.8253 107.143 51.8242 107.104 51.8242V53.7583C107.104 56.9619 105.697 59.842 103.471 61.8183V64.2265C103.471 64.9633 103.881 65.6257 104.54 65.9554ZM87.1254 46.4936V48.0772C88.2707 47.7005 89.8637 46.9179 91.4895 45.2921C91.818 44.9638 92.253 44.7943 92.6917 44.7943C93.0181 44.7943 93.3462 44.8881 93.6337 45.0798C93.677 45.1081 98.1346 47.9825 105.521 48.3811V46.4936C105.521 42.4233 102.21 39.1119 98.1396 39.1119H94.5073C90.4371 39.1119 87.1257 42.4233 87.1257 46.4936H87.1254ZM92.3969 65.5902L96.3235 69.5167L100.25 65.5902C100.135 65.152 100.073 64.6952 100.073 64.2265V63.8647C98.9045 64.2994 97.6414 64.5382 96.3235 64.5382C95.0055 64.5382 93.7425 64.2994 92.5743 63.8647V64.2265C92.5743 64.6952 92.5115 65.152 92.3969 65.5902ZM88.9418 53.7583C88.9418 57.8288 92.2533 61.14 96.3235 61.14C100.394 61.14 103.705 57.8285 103.705 53.7583V51.6486C98.4473 51.1184 94.714 49.5137 92.9295 48.5852C91.5185 49.7873 90.1319 50.5434 88.9418 51.0189V53.7583Z" fill="#367BF5"/>
</svg>
