<svg width="120" height="120" viewBox="0 0 120 120" fill="none" xmlns="http://www.w3.org/2000/svg">
<path fill-rule="evenodd" clip-rule="evenodd" d="M86.875 8H32.5C28.3633 8 25 11.3633 25 15.5V105.5C25 109.637 28.3633 113 32.5 113H86.875C91.0117 113 94.375 109.637 94.375 105.5V15.5C94.375 11.3633 91.0117 8 86.875 8ZM33.4375 104.562V16.4375H85.9375V104.562H33.4375ZM55 96.6094C55 97.8525 55.4941 99.0449 56.373 99.9238C57.252 100.803 58.4443 101.297 59.6875 101.297C60.9307 101.297 62.123 100.803 63.002 99.9238C63.8809 99.0449 64.375 97.8525 64.375 96.6094C64.375 95.3662 63.8809 94.1738 63.002 93.2949C62.123 92.4155 60.9307 91.9219 59.6875 91.9219C58.918 91.9219 58.1689 92.1108 57.501 92.4629C57.418 92.5063 57.3369 92.5527 57.2568 92.6011C57.1367 92.6743 57.0195 92.7529 56.9053 92.8369C56.8311 92.8911 56.7588 92.9478 56.6885 93.0068C56.5791 93.0977 56.4746 93.1938 56.373 93.2949C55.4941 94.1738 55 95.3662 55 96.6094ZM40.9375 24.2344C40.9375 23.6821 41.3848 23.2344 41.9375 23.2344H54.9375C55.4902 23.2344 55.9375 23.6821 55.9375 24.2344V37.2344C55.9375 37.7866 55.4902 38.2344 54.9375 38.2344H41.9375C41.6191 38.2344 41.3359 38.0859 41.1523 37.8545C41.0879 37.7734 41.0361 37.6826 41 37.5845C40.96 37.4756 40.9375 37.3574 40.9375 37.2344V24.2344ZM41.1406 46.1299C41.0127 46.2979 40.9375 46.5073 40.9375 46.7344V59.7344C40.9375 60.2866 41.3848 60.7344 41.9375 60.7344H54.9375C55.4902 60.7344 55.9375 60.2866 55.9375 59.7344V46.7344C55.9375 46.1821 55.4902 45.7344 54.9375 45.7344H41.9375C41.6123 45.7344 41.3232 45.8896 41.1406 46.1299ZM40.9375 69.2344C40.9375 68.6821 41.3848 68.2344 41.9375 68.2344H54.9375C55.0391 68.2344 55.1377 68.2495 55.2305 68.2778C55.292 68.2964 55.3506 68.3208 55.4062 68.3501C55.4482 68.3726 55.4893 68.3979 55.5273 68.4263C55.7764 68.6084 55.9375 68.9023 55.9375 69.2344V82.2344C55.9375 82.7866 55.4902 83.2344 54.9375 83.2344H41.9375C41.3848 83.2344 40.9375 82.7866 40.9375 82.2344V69.2344ZM63.8037 23.4609C63.5801 23.644 63.4375 23.9229 63.4375 24.2344V37.2344C63.4375 37.7866 63.8848 38.2344 64.4375 38.2344H77.4375C77.9902 38.2344 78.4375 37.7866 78.4375 37.2344V24.2344C78.4375 23.9385 78.3096 23.6729 78.1055 23.4897C78.0332 23.4248 77.9512 23.3706 77.8623 23.3286C77.7334 23.2681 77.5898 23.2344 77.4375 23.2344H64.4375C64.3369 23.2344 64.2402 23.249 64.1494 23.2764C64.0215 23.3149 63.9043 23.3784 63.8037 23.4609ZM63.4375 46.7344C63.4375 46.1821 63.8848 45.7344 64.4375 45.7344H77.4375C77.9902 45.7344 78.4375 46.1821 78.4375 46.7344V59.7344C78.4375 60.0127 78.3242 60.2646 78.1406 60.4458C77.96 60.624 77.7119 60.7344 77.4375 60.7344H64.4375C64.1357 60.7344 63.8652 60.6006 63.6816 60.3892C63.5293 60.2139 63.4375 59.9849 63.4375 59.7344V46.7344ZM64.4375 68.2344C63.8848 68.2344 63.4375 68.6821 63.4375 69.2344V82.2344C63.4375 82.7866 63.8848 83.2344 64.4375 83.2344H77.4375C77.9902 83.2344 78.4375 82.7866 78.4375 82.2344V69.2344C78.4375 68.6821 77.9902 68.2344 77.4375 68.2344H64.4375Z" fill="#8AC03B"/>
</svg>
