<svg width="120" height="120" viewBox="0 0 120 120" fill="none" xmlns="http://www.w3.org/2000/svg">
<path d="M110 80V20C110 14.5 105.5 10 100 10H40C34.5 10 30 14.5 30 20V80C30 85.5 34.5 90 40 90H100C105.5 90 110 85.5 110 80ZM57 62.65L65.15 73.55L78.05 57.45C78.2843 57.158 78.5811 56.9224 78.9186 56.7604C79.2561 56.5985 79.6257 56.5144 80 56.5144C80.3743 56.5144 80.7439 56.5985 81.0814 56.7604C81.4189 56.9224 81.7157 57.158 81.95 57.45L96.75 75.95C98.05 77.6 96.9 80 94.8 80H45C44.5357 80 44.0806 79.8707 43.6857 79.6266C43.2907 79.3825 42.9716 79.0333 42.7639 78.618C42.5563 78.2028 42.4684 77.7379 42.5101 77.2755C42.5518 76.8131 42.7214 76.3714 43 76L53 62.65C54 61.35 56 61.35 57 62.65V62.65ZM10 35V100C10 105.5 14.5 110 20 110H85C87.75 110 90 107.75 90 105C90 102.25 87.75 100 85 100H25C22.25 100 20 97.75 20 95V35C20 32.25 17.75 30 15 30C12.25 30 10 32.25 10 35Z" fill="#8AC03B"/>
</svg>
