<svg width="120" height="120" viewBox="0 0 120 120" fill="none" xmlns="http://www.w3.org/2000/svg">
<path fill-rule="evenodd" clip-rule="evenodd" d="M78.5355 41.4645C80.4882 43.4171 80.4882 46.5829 78.5355 48.5355L48.5355 78.5355C46.5829 80.4882 43.4171 80.4882 41.4645 78.5355C39.5118 76.5829 39.5118 73.4171 41.4645 71.4645L71.4645 41.4645C73.4171 39.5118 76.5829 39.5118 78.5355 41.4645Z" fill="#367BF5"/>
<path d="M47.5 50C48.8807 50 50 48.8807 50 47.5C50 46.1193 48.8807 45 47.5 45C46.1193 45 45 46.1193 45 47.5C45 48.8807 46.1193 50 47.5 50Z" fill="#367BF5"/>
<path fill-rule="evenodd" clip-rule="evenodd" d="M47.5 50C48.8807 50 50 48.8807 50 47.5C50 46.1193 48.8807 45 47.5 45C46.1193 45 45 46.1193 45 47.5C45 48.8807 46.1193 50 47.5 50ZM40 47.5C40 43.3579 43.3579 40 47.5 40C51.6421 40 55 43.3579 55 47.5C55 51.6421 51.6421 55 47.5 55C43.3579 55 40 51.6421 40 47.5Z" fill="#367BF5"/>
<path d="M72.5 75C73.8807 75 75 73.8807 75 72.5C75 71.1193 73.8807 70 72.5 70C71.1193 70 70 71.1193 70 72.5C70 73.8807 71.1193 75 72.5 75Z" fill="#367BF5"/>
<path fill-rule="evenodd" clip-rule="evenodd" d="M72.5 75C73.8807 75 75 73.8807 75 72.5C75 71.1193 73.8807 70 72.5 70C71.1193 70 70 71.1193 70 72.5C70 73.8807 71.1193 75 72.5 75ZM65 72.5C65 68.3579 68.3579 65 72.5 65C76.6421 65 80 68.3579 80 72.5C80 76.6421 76.6421 80 72.5 80C68.3579 80 65 76.6421 65 72.5Z" fill="#367BF5"/>
<path fill-rule="evenodd" clip-rule="evenodd" d="M60.0523 20.0562C59.2615 20.0562 58.4786 20.2125 57.7484 20.5161C57.0183 20.8197 56.3553 21.2647 55.7978 21.8254L55.7878 21.8354L52.2878 25.3354L52.2779 25.3453C49.2822 28.3242 45.2299 29.9974 41.0052 29.9999L36.0023 29.9999C34.411 29.9999 32.8849 30.632 31.7597 31.7572C30.6344 32.8824 30.0023 34.4086 30.0023 35.9999V40.9999C29.9999 45.2246 28.3267 49.2797 25.3478 52.2754L25.3379 52.2854L21.8378 55.7854L21.8279 55.7953C21.2672 56.3529 20.8222 57.0158 20.5185 57.746C20.2149 58.4761 20.0586 59.2591 20.0586 60.0499C20.0586 60.8406 20.2149 61.6236 20.5185 62.3537C20.8222 63.0839 21.2672 63.7468 21.8279 64.3044L21.8379 64.3143L25.3478 67.8243C28.3267 70.82 29.9999 74.8723 30.0023 79.097L30.0023 84.0999C30.0023 85.6912 30.6344 87.2173 31.7597 88.3425C32.8849 89.4677 34.411 90.0999 36.0023 90.0999H41.0023C45.227 90.1023 49.2822 91.7755 52.2779 94.7544L52.2879 94.7643L55.7978 98.2743C56.3553 98.835 57.0183 99.28 57.7484 99.5836C58.4786 99.8873 59.2616 100.044 60.0523 100.044C60.8431 100.044 61.626 99.8873 62.3562 99.5836C63.0864 99.28 63.7493 98.835 64.3069 98.2743L64.3168 98.2643L67.8168 94.7643L67.8267 94.7544C70.8224 91.7755 74.8747 90.1023 79.0994 90.0999H84.1023C85.6936 90.0999 87.2197 89.4677 88.345 88.3425C89.4702 87.2173 90.1023 85.6912 90.1023 84.0999V79.0999C90.1047 74.8751 91.7779 70.82 94.7569 67.8243L94.7668 67.8143L98.2668 64.3143L98.2767 64.3044C98.8374 63.7468 99.2824 63.0839 99.5861 62.3537C99.8897 61.6236 100.046 60.8406 100.046 60.0499C100.046 59.2591 99.8897 58.4761 99.5861 57.746C99.2824 57.0158 98.8374 56.3529 98.2767 55.7953L98.2668 55.7854L94.7668 52.2854L94.7569 52.2754C91.7779 49.2797 90.1047 45.2274 90.1023 41.0027V35.9999C90.1023 34.4086 89.4702 32.8824 88.345 31.7572C87.2197 30.632 85.6936 29.9999 84.1023 29.9999H79.1023C74.8776 29.9974 70.8224 28.3242 67.8267 25.3453L67.8168 25.3354L64.3168 21.8354L64.3069 21.8254C63.7493 21.2647 63.0863 20.8197 62.3562 20.5161C61.626 20.2125 60.8431 20.0562 60.0523 20.0562ZM20.0023 40.9983C20.0011 42.5801 19.3752 44.0973 18.2612 45.22C18.2597 45.2214 18.2583 45.2228 18.2569 45.2243L14.7767 48.7044C14.7748 48.7063 14.7728 48.7083 14.7709 48.7102C13.2784 50.1959 12.0938 51.9616 11.2851 53.9062C10.4754 55.8532 10.0586 57.9412 10.0586 60.0499C10.0586 62.1586 10.4754 64.2465 11.2851 66.1936C12.0939 68.1383 13.2786 69.9042 14.7714 71.39C14.7732 71.3918 14.7749 71.3936 14.7767 71.3953L18.2569 74.8755C18.2583 74.8769 18.2597 74.8783 18.2612 74.8798C19.3752 76.0024 20.0011 77.5197 20.0023 79.1014V84.0999C20.0023 88.3433 21.688 92.413 24.6886 95.4136C27.6892 98.4142 31.7588 100.1 36.0023 100.1H40.9994C42.5821 100.101 44.1003 100.727 45.2234 101.842C45.2222 101.841 45.2245 101.843 45.2234 101.842L48.7069 105.325C48.7087 105.327 48.7106 105.329 48.7124 105.331C50.1982 106.824 51.964 108.008 53.9086 108.817C55.8557 109.627 57.9436 110.044 60.0523 110.044C62.161 110.044 64.249 109.627 66.196 108.817C68.1402 108.009 69.9056 106.824 71.3911 105.332C71.3934 105.33 71.3956 105.328 71.3978 105.325L74.8779 101.845C74.8793 101.844 74.8808 101.842 74.8822 101.841C76.0052 100.727 77.5229 100.101 79.1052 100.1H84.1023C88.3458 100.1 92.4154 98.4142 95.416 95.4136C98.4166 92.413 100.102 88.3433 100.102 84.0999V79.1027C100.103 77.5205 100.729 76.0027 101.843 74.8798C101.845 74.8783 101.846 74.8769 101.848 74.8755L105.328 71.3953C105.33 71.3931 105.332 71.3909 105.335 71.3887C106.827 69.9032 108.011 68.1377 108.819 66.1936C109.629 64.2465 110.046 62.1586 110.046 60.0499C110.046 57.9411 109.629 55.8532 108.819 53.9062C108.011 51.9615 106.826 50.1957 105.333 48.71C105.332 48.7081 105.33 48.7063 105.328 48.7044L101.848 45.2243C101.849 45.2254 101.847 45.2232 101.848 45.2243C100.733 44.1012 100.103 42.5797 100.102 40.997V35.9999C100.102 31.7564 98.4166 27.6867 95.416 24.6862C92.4154 21.6856 88.3458 19.9999 84.1023 19.9999H79.1039C77.5221 19.9986 76.0049 19.3728 74.8822 18.2587C74.8808 18.2573 74.8793 18.2558 74.8779 18.2544L71.3978 14.7743C71.396 14.7725 71.3942 14.7707 71.3925 14.769C69.9067 13.2762 68.1407 12.0914 66.196 11.2827C64.2489 10.473 62.161 10.0562 60.0523 10.0562C57.9436 10.0562 55.8557 10.473 53.9086 11.2827C51.9641 12.0914 50.1983 13.2759 48.7126 14.7685C48.7107 14.7704 48.7088 14.7723 48.7069 14.7743L45.2267 18.2544C45.2253 18.2558 45.2238 18.2573 45.2224 18.2587C44.0997 19.3728 42.5825 19.9986 41.0008 19.9999H36.0023C31.7588 19.9999 27.6892 21.6856 24.6886 24.6862C21.688 27.6867 20.0023 31.7564 20.0023 35.9999V40.9983Z" fill="#367BF5"/>
</svg>
